<?xml version="1.0" encoding="UTF-8"?>
<svg id="Layer_1" data-name="Layer 1" xmlns="http://www.w3.org/2000/svg" xmlns:xlink="http://www.w3.org/1999/xlink" viewBox="0 0 215.37 214.97">
  <defs>
    <style>
      .cls-1 {
        clip-path: url(#clippath);
      }

      .cls-2 {
        fill: none;
      }

      .cls-2, .cls-3, .cls-4 {
        stroke-width: 0px;
      }

      .cls-4 {
        fill: #fff;
      }
    </style>
    <clipPath id="clippath">
      <circle class="cls-2" cx="106.63" cy="105.06" r="53.98"/>
    </clipPath>
  </defs>
  <g class="cls-1">
    <g>
      <path class="cls-4" d="m215.37,214.97H0V0h215.37v214.97Zm-108.82-55.94c29.94-.11,53.36-24.17,53.77-53,.42-30.01-23.69-54.26-53.15-54.58-29.91-.33-54.32,23.79-54.42,53.7-.1,29.63,24.09,53.86,53.8,53.88Z"/>
      <path class="cls-3" d="m106.55,159.04c-29.71-.02-53.9-24.25-53.8-53.88.1-29.91,24.51-54.03,54.42-53.7,29.45.32,53.57,24.57,53.15,54.58-.4,28.82-23.83,52.89-53.77,53Zm26.66-43.55c2.48-6.82,2.48-13.54.01-20.49h22.96c0-.13,0-.25.01-.38-.39-.04-.78-.12-1.17-.11-6.93.04-13.87.06-20.8.16-.92.01-1.3-.3-1.66-1.1-4.98-11.28-17.08-18.25-29.26-16.66-10.6,1.39-18.2,7.07-22.8,16.72-.35.73-.72,1.01-1.54,1.01-7.5.04-14.99.13-22.49.21-.35,0-.7.08-1.05.12.01.09.02.18.03.27h24.33c-2.38,6.64-2.39,13.3.07,20.21-4.18,0-8.2-.03-12.21,0-3.99.03-7.99-.07-11.98.33.3.23.61.28.92.28,7.46-.07,14.93-.14,22.39-.25.78-.01,1.13.2,1.47.92,4.87,10.25,12.97,16.08,24.29,16.96,11.79.92,22.8-5.79,27.72-16.55.44-.96.94-1.2,1.91-1.19,6.8.02,13.61-.02,20.41-.04.39,0,.78-.07,1.17-.11,0-.1-.01-.2-.02-.3h-22.71Z"/>
      <path class="cls-4" d="m133.21,115.49h22.71c0,.1.01.2.02.3-.39.04-.78.11-1.17.11-6.8.03-13.61.06-20.41.04-.98,0-1.47.24-1.91,1.19-4.92,10.76-15.93,17.47-27.72,16.55-11.32-.88-19.42-6.71-24.29-16.96-.34-.72-.69-.94-1.47-.92-7.46.11-14.92.18-22.39.25-.31,0-.61-.05-.92-.28,3.99-.4,7.99-.3,11.98-.33,4.02-.03,8.04,0,12.21,0-2.46-6.91-2.45-13.57-.07-20.21h-24.33c-.01-.09-.02-.18-.03-.27.35-.04.7-.12,1.05-.12,7.5-.08,14.99-.16,22.49-.21.82,0,1.19-.28,1.54-1.01,4.6-9.65,12.19-15.34,22.8-16.72,12.18-1.59,24.28,5.38,29.26,16.66.35.8.73,1.12,1.66,1.1,6.93-.09,13.87-.12,20.8-.16.39,0,.78.07,1.17.11,0,.13,0,.25-.01.38h-22.96c2.47,6.95,2.46,13.68-.01,20.49Zm-26.63-38.29c-15.44-.02-28.04,12.49-28.09,27.88-.05,15.54,12.48,28.18,27.96,28.21,15.54.03,28.12-12.51,28.13-28.04.01-15.5-12.5-28.03-28-28.05Z"/>
      <path class="cls-3" d="m106.58,77.2c15.5.02,28.01,12.55,28,28.05-.01,15.53-12.59,28.07-28.13,28.04-15.48-.03-28.01-12.67-27.96-28.21.05-15.4,12.65-27.91,28.09-27.88Zm-9.56,15.86c-.45.54-.98,1.1-1.43,1.73-1.09,1.53-1.26,3.26-1.17,5.08.09,1.88.49,2.25,2.36,1.78.25-.06.49-.19.74-.28.83-.3,1.67-.59,2.62-.93.37.9.65,1.74,1.06,2.51.2.39.59.85.97.94,1.12.27,1.94.9,2.68,1.73.28.32.65.56.83.71.44-1.1.67-2.24,1.29-3.08.87-1.17,1.65-2.33,1.78-3.78.08-.96.6-1.14,1.36-1.14,1.91-.01,3.83-.01,5.74-.04.49,0,1.16.18,1.23-.62.07-.71.22-1.47-.73-1.82-.46-.17-.87-.46-1.3-.7.24-.19.42-.22.57-.18,1.72.45,3.41.07,5.08-.28.36-.08.9-.46.93-.75.11-1.05.04-2.13.04-3.32h-6.66c-.01-.1-.02-.2-.03-.3.52-.12,1.05-.38,1.55-.33.98.11.99-.63,1.26-1.19.32-.67-.21-.85-.59-1.15-1.11-.9-2.54-.83-3.79-1.28-1.97-.7-3.19.34-4.37,1.6-.58.63-1.07,1.34-1.61,2.01-.18.22-.38.42-.68.74-1.41-3.61-2.76-7.09-4.12-10.56-.09.03-.18.06-.27.09.02.29.03.58.06.87.23,2,.46,4,.72,5.99.12.89-.13,1.25-1.11,1.18-3.44-.26-6.21,1.55-9.15,2.91q1.23,2.23,4.11,1.84Zm6.07,19.88c-.62,1.11-.98,2.18-.88,3.35.07.82.75,1.27,1.63,1.24.87-.03.95-.66,1.03-1.3.19-1.47-.72-2.35-1.78-3.29Zm.71-7.92c-.13.03-.27.06-.4.09-.23.87-.56,1.73-.64,2.61-.05.53.18,1.19.52,1.61.41.51,1.25.86,1.73.3.42-.48.74-1.44.54-1.98-.36-.96-1.15-1.76-1.75-2.63Zm-4.05,3.89c-.2,1.07-.43,2.14-.57,3.22-.1.78.3,1.24,1.13,1.25.8,0,1.35-.46,1.31-1.26-.08-1.3-.79-2.29-1.87-3.22Zm14.94-7.14c-1.07,2.24-1.07,2.59.11,3.63.3.26.96.59,1.08.48.39-.36.81-.89.84-1.38.07-1.36-1-2-2.02-2.74Zm-6.39,12.65c-.23-1.48-.43-2.77-.62-4.06-.1-.02-.19-.03-.29-.05-.46.59-.92,1.18-1.37,1.77-.66.86-.47,1.82.51,2.2.46.18,1.02.09,1.77.13Zm5.22-2.38c-.35,1.31-.86,2.58.2,3.69.23.25.72.59.88.5.31-.18.62-.59.68-.95.25-1.51-.95-2.27-1.76-3.23Zm-.99-2.39c-.71-1.19-1.37-2.29-2.03-3.39-.11,0-.22.02-.33.03-.16.97-.49,1.96-.44,2.92.08,1.39.48,1.54,1.74.98.32-.14.63-.31,1.06-.53Zm7.16-4.38c-.58,1.01-.97,1.97-.91,3.1.05.91.57,1.17,1.34,1.2.79.03.84-.63.96-1.14.31-1.34-.48-2.22-1.39-3.16Zm-4.31,1.66c-.11.04-.22.08-.33.12-.06.8-.28,1.63-.11,2.37.11.47.75.9,1.25,1.16.23.12.99-.19,1.01-.36.09-.67.18-1.49-.13-2.02-.33-.56-1.11-.86-1.69-1.27Zm1.23,8.03c-.48.94-.64,1.82-.4,2.78.14.53.46.9.97.7.38-.15.84-.54.92-.9.24-1.13-.34-1.94-1.49-2.57Zm-15.94,1.66c-.57-.8-.98-1.42-1.46-1.98-.08-.09-.69.08-.71.19-.13.66-.21,1.34-.19,2.02.02.68.43,1.18,1.14.93.41-.14.7-.64,1.22-1.15Zm21.27-13.56c.02.16.03.42.08.67.12.56.37.98,1.05.89.67-.09.97-.51.94-1.15-.01-.35,0-.79-.19-1.04-.33-.45-.81-.8-1.23-1.19-.2.44-.42.88-.61,1.32-.05.11-.03.26-.05.49Zm-7.81,17.07c-.57-.8-.98-1.43-1.46-1.99-.08-.09-.71.07-.72.18-.11.7-.18,1.41-.16,2.12.02.66.45,1.1,1.11.84.42-.16.71-.64,1.24-1.15Zm-8.15-3.02c-.14.01-.28.02-.42.03,0,.93-.04,1.85.02,2.78.04.61.54.88,1.06.69.34-.13.72-.55.79-.91.26-1.25-.45-2.02-1.44-2.59Zm4.17,4.04c-.54-.78-.92-1.39-1.38-1.92-.09-.11-.76.05-.78.16-.13.66-.2,1.34-.18,2.01.02.7.47,1.15,1.16.88.41-.15.69-.64,1.18-1.13Zm-14.38-9.71c.06.22.05.6.23.84.22.29.64.66.9.62.36-.06.88-.46.92-.77.07-.54-.06-1.18-.32-1.67-.2-.38-.72-.6-1.1-.89-.17.4-.36.79-.51,1.19-.07.18-.08.38-.13.68Zm23.19,1.87c.02.14.05.4.09.66.11.67.55,1.05,1.15.78.37-.16.66-.67.81-1.09.11-.29.02-.78-.17-1.03-.34-.44-.82-.78-1.25-1.15-.19.41-.4.81-.57,1.23-.06.14-.04.32-.07.61Zm-9.31,3.6c-.07.04-.13.09-.2.13.31.47.56,1.02.98,1.37.16.13,1.02-.17,1.04-.33.07-.7.06-1.46-.15-2.11-.12-.37-.71-.58-1.09-.86-.17.4-.35.8-.5,1.21-.06.18-.05.39-.07.58Zm7.09-15.86c.04.2.02.65.23.94.19.26.62.45.96.46.24,0,.69-.3.71-.5.05-.6.08-1.28-.15-1.81-.2-.43-.79-.69-1.21-1.02-.16.44-.32.89-.47,1.33-.04.12-.03.26-.05.59Zm6.11,4.87c0,.96-.04,1.88.03,2.8.02.19.44.5.67.5.34,0,.84-.14,1-.39.67-1.09-.13-2.58-1.7-2.9Z"/>
      <path class="cls-4" d="m97.02,93.06q-2.87.39-4.11-1.84c2.94-1.36,5.71-3.17,9.15-2.91.98.07,1.22-.29,1.11-1.18-.26-1.99-.49-3.99-.72-5.99-.03-.29-.04-.58-.06-.87.09-.03.18-.06.27-.09,1.36,3.48,2.71,6.95,4.12,10.56.3-.32.5-.52.68-.74.54-.67,1.03-1.38,1.61-2.01,1.17-1.26,2.4-2.29,4.37-1.6,1.25.44,2.68.38,3.79,1.28.37.3.91.48.59,1.15-.27.56-.28,1.3-1.26,1.19-.5-.05-1.03.21-1.55.33.01.1.02.2.03.3h6.66c0,1.19.07,2.26-.04,3.32-.03.29-.57.67-.93.75-1.67.35-3.36.73-5.08.28-.15-.04-.32,0-.57.18.43.24.84.53,1.3.7.94.35.79,1.11.73,1.82-.07.8-.74.61-1.23.62-1.91.03-3.83.03-5.74.04-.76,0-1.28.18-1.36,1.14-.13,1.45-.91,2.61-1.78,3.78-.62.84-.85,1.97-1.29,3.08-.18-.15-.55-.39-.83-.71-.74-.83-1.56-1.46-2.68-1.73-.38-.09-.77-.56-.97-.94-.41-.78-.69-1.62-1.06-2.51-.96.34-1.79.63-2.62.93-.25.09-.48.22-.74.28-1.87.47-2.27.1-2.36-1.78-.09-1.83.08-3.56,1.17-5.08.45-.63.98-1.19,1.43-1.73Zm8.28,11.88c.47-.73.98-1.62,1.57-2.45,1.19-1.69,1.95-3.43,1.02-5.5-.15-.33-.25-.68-.33-1.03-.33-1.43-.32-1.44-1.81-1.44-.07,0-.13,0-.2,0-1.96,0-2.82.65-3.34,2.55-.11.38-.14.86-.39,1.1-1.45,1.4-1.02,2.85-.21,4.33.06.11.06.27.15.36.16.19.33.39.54.5,1.04.56,2.09,1.09,3.01,1.57Zm-3.8-13.05c-5.92,1.44-6.95,4.6-6.43,9.27,5.12-.19,8.11-2.88,6.43-9.27Zm7.37.55c.4.45.62.97.94,1.03,3.31.63,6.6,1.57,10.03.83,1.33-.29,1.67-.69,1.52-2.04-.04-.35-.14-.69-.2-1.02-4.09-.31-8.06,0-12.29,1.21Zm-1.99-1.09c.96.2,1.61.51,2.21.43,2.06-.26,4.09-.7,5.86-1.9.31-.21.74-.39,1.09-.35.87.08,1.28-.25,1.31-1.08-1.3-1.24-3.03-1.19-4.59-1.63-.8-.23-1.49-.15-2.06.46-1.21,1.28-2.4,2.56-3.81,4.06Zm9.49,6.37c.29-.78.12-1.19-.55-1.51-.65-.32-1.21-.8-1.81-1.22-1.35-.44-2.84-.71-4.32-.99-1.32-.26-1.99.37-1.68,1.63.14.57.3,1.15.58,1.67.14.26.55.52.84.53,1.21.02,2.43-.07,3.65-.1,1.11-.02,2.22,0,3.3,0Zm-13.96-8.83c-3.38-.4-5.97,1.41-8.82,2.53q1,1.46,2.52,1.2c.78-.13,1.57-.22,2.34-.37.37-.07.82-.15,1.08-.4.95-.9,1.83-1.88,2.88-2.96Zm2.65,5.17s.01.07.02.11c.99-.15,1.99-.27,2.97-.48.24-.05.64-.44.6-.58-.08-.33-.34-.84-.6-.88-1.31-.22-2.65-.47-3.96-.38-.55.04-1.16.8-1.54,1.37-.29.43-.03.88.64.85.62-.03,1.25,0,1.87,0Zm-1.68-10.53c-.06.02-.12.05-.18.07.29,2.5.58,5.01.88,7.59.75.04,1.46.07,2.29.11-1.02-2.66-2.01-5.21-2.99-7.77Zm-.1,5.63c-.74.72-1.38,1.36-2.21,2.17,1.35-.55.77.74,1.28.99,1.71-.62.99-1.94.94-3.15Z"/>
      <path class="cls-4" d="m103.1,112.95c1.05.94,1.96,1.82,1.78,3.29-.08.63-.15,1.27-1.03,1.3-.88.03-1.56-.42-1.63-1.24-.1-1.16.26-2.23.88-3.35Zm.04.86c-.13.88-.34,1.6-.3,2.32.01.29.56.55.86.82.22-.27.57-.51.63-.81.2-.94-.35-1.59-1.19-2.33Z"/>
      <path class="cls-4" d="m103.81,105.02c.61.87,1.39,1.67,1.75,2.63.2.54-.12,1.49-.54,1.98-.48.56-1.31.21-1.73-.3-.34-.41-.57-1.08-.52-1.61.08-.88.41-1.74.64-2.61.13-.03.27-.06.4-.09Zm.1,1.06c-.16.03-.31.05-.47.08,0,.79-.09,1.59.05,2.35.06.31.59.62.97.74.12.04.55-.48.64-.81.33-1.16-.78-1.58-1.18-2.36Z"/>
      <path class="cls-4" d="m99.76,108.91c1.08.93,1.79,1.92,1.87,3.22.05.79-.51,1.26-1.31,1.26-.83-.01-1.23-.47-1.13-1.25.14-1.08.38-2.15.57-3.22Zm.58,1.2c-.09.03-.17.05-.26.08-.12.54-.3,1.08-.34,1.62-.03.31.1.69.28.94.08.11.61.1.7-.02.18-.26.32-.66.25-.95-.13-.58-.42-1.12-.64-1.67Z"/>
      <path class="cls-4" d="m114.71,101.77c1.03.73,2.1,1.37,2.02,2.74-.03.49-.45,1.02-.84,1.38-.12.11-.78-.22-1.08-.48-1.18-1.04-1.18-1.4-.11-3.63Zm.26.73c-.18.63-.49,1.11-.39,1.49.13.48.57.88.92,1.28.06.07.48-.02.49-.06.06-.46.2-.97.04-1.37-.17-.45-.62-.81-1.06-1.34Z"/>
      <path class="cls-4" d="m108.32,114.42c-.75-.05-1.31.04-1.77-.13-.98-.38-1.17-1.34-.51-2.2.45-.59.91-1.18,1.37-1.77.1.02.19.03.29.05.2,1.29.4,2.58.62,4.06Zm-2.26-1.43c.43.46.67,1.19,1.58.73-.11-.73-.22-1.44-.36-2.35-.49.65-.85,1.12-1.22,1.62Z"/>
      <path class="cls-4" d="m113.53,112.04c.81.96,2.01,1.73,1.76,3.23-.06.36-.37.78-.68.95-.15.09-.64-.26-.88-.5-1.05-1.11-.55-2.38-.2-3.69Zm1.03,3.72c.39-1.13.04-1.89-.74-2.53-.37.98-.16,1.78.74,2.53Z"/>
      <path class="cls-4" d="m112.54,109.65c-.44.22-.74.39-1.06.53-1.25.57-1.66.42-1.74-.98-.05-.96.28-1.95.44-2.92.11,0,.22-.02.33-.03.66,1.1,1.32,2.2,2.03,3.39Zm-1.88-2.03c-.07.02-.15.03-.22.05v2.38c.59-.28.92-.44,1.33-.63-.41-.66-.76-1.23-1.11-1.8Z"/>
      <path class="cls-4" d="m119.7,105.27c.92.94,1.7,1.82,1.39,3.16-.12.52-.18,1.17-.96,1.14-.77-.03-1.29-.3-1.34-1.2-.06-1.13.33-2.09.91-3.1Zm-.05.98c-.12.79-.27,1.42-.27,2.05,0,.21.36.43.55.65.21-.2.53-.36.61-.6.25-.76.01-1.42-.89-2.1Z"/>
      <path class="cls-4" d="m115.4,106.93c.58.41,1.37.71,1.69,1.27.31.53.22,1.35.13,2.02-.02.18-.78.48-1.01.36-.5-.26-1.14-.69-1.25-1.16-.17-.74.05-1.58.11-2.37.11-.04.22-.08.33-.12Zm.3.91l-.36.09c.14.62.23,1.27.45,1.86.06.16.51.27.76.23.14-.02.26-.4.31-.63.21-.96-.6-1.17-1.15-1.56Z"/>
      <path class="cls-4" d="m116.63,114.96c1.15.63,1.72,1.44,1.49,2.57-.07.36-.54.75-.92.9-.51.2-.83-.17-.97-.7-.25-.96-.09-1.84.4-2.78Zm.56.93c-.15.03-.3.05-.45.08,0,.5-.04,1.01.02,1.5.02.15.3.37.45.36.14,0,.41-.29.39-.41-.09-.52-.27-1.02-.41-1.53Z"/>
      <path class="cls-4" d="m100.69,116.62c-.52.51-.81,1.01-1.22,1.15-.71.25-1.12-.25-1.14-.93-.02-.67.07-1.35.19-2.02.02-.11.64-.28.71-.19.48.56.89,1.19,1.46,1.98Zm-1.38-1.38c-.14.04-.28.09-.43.13,0,.48-.04.96.02,1.43.02.17.32.3.48.44.13-.16.38-.34.36-.47-.1-.52-.29-1.02-.44-1.53Z"/>
      <path class="cls-4" d="m121.95,103.06c.02-.23,0-.38.05-.49.19-.45.4-.88.61-1.32.42.39.9.74,1.23,1.19.19.26.18.69.19,1.04.02.64-.27,1.06-.94,1.15-.68.09-.94-.33-1.05-.89-.05-.25-.06-.52-.08-.67Zm1.11-1.01c-.14.02-.29.05-.43.07,0,.54-.02,1.08.02,1.62,0,.1.29.27.43.25.13-.02.35-.25.34-.36-.08-.53-.23-1.06-.35-1.58Z"/>
      <path class="cls-4" d="m114.14,120.13c-.52.51-.82.99-1.24,1.15-.66.26-1.08-.18-1.11-.84-.02-.71.05-1.42.16-2.12.02-.11.65-.27.72-.18.48.56.89,1.19,1.46,1.99Zm-1.37-1.39c-.14.04-.27.07-.41.11,0,.51-.03,1.02.02,1.52.02.14.29.26.44.39.13-.16.38-.35.36-.49-.09-.52-.27-1.02-.41-1.54Z"/>
      <path class="cls-4" d="m106,117.11c.99.57,1.7,1.35,1.44,2.59-.07.35-.45.78-.79.91-.51.2-1.02-.08-1.06-.69-.06-.92-.02-1.85-.02-2.78.14-.01.28-.02.42-.03Zm.58.98c-.17.03-.34.05-.51.08,0,.47-.05.96.02,1.42.03.17.33.3.51.45.12-.16.35-.34.34-.48-.07-.5-.23-.98-.35-1.47Z"/>
      <path class="cls-4" d="m110.17,121.14c-.49.49-.77.98-1.18,1.13-.69.26-1.14-.18-1.16-.88-.02-.67.05-1.35.18-2.01.02-.11.69-.27.78-.16.47.53.84,1.15,1.38,1.92Zm-1.69-1.33c-.03.19-.1.34-.08.49.06.49.14.97.22,1.46.2-.06.57-.16.56-.19-.1-.55-.24-1.09-.39-1.63-.02-.06-.16-.07-.31-.13Z"/>
      <path class="cls-4" d="m95.79,111.44c.05-.3.06-.5.13-.68.15-.4.34-.79.51-1.19.38.29.9.51,1.1.89.26.49.39,1.13.32,1.67-.04.31-.56.7-.92.77-.27.05-.68-.33-.9-.62-.18-.23-.18-.61-.23-.84Zm1.07-1.12c-.13.03-.26.05-.39.08,0,.5-.04,1,.02,1.49.02.17.32.29.5.44.12-.17.35-.36.32-.49-.11-.52-.3-1.01-.46-1.52Z"/>
      <path class="cls-4" d="m118.98,113.3c.03-.28,0-.46.07-.61.17-.42.38-.82.57-1.23.42.38.91.71,1.25,1.15.19.25.28.74.17,1.03-.15.42-.45.93-.81,1.09-.61.27-1.05-.11-1.15-.78-.04-.26-.07-.52-.09-.66Zm1.04-1.09c-.11.03-.22.05-.33.08-.05.42-.19.85-.14,1.26.03.25.34.47.52.71.13-.25.4-.52.37-.75-.05-.44-.27-.86-.42-1.29Z"/>
      <path class="cls-4" d="m109.67,116.9c.02-.19,0-.4.07-.58.15-.41.33-.81.5-1.21.38.28.97.49,1.09.86.22.66.22,1.41.15,2.11-.01.16-.87.46-1.04.33-.42-.35-.66-.9-.98-1.37.07-.04.13-.09.2-.13Zm1.06-1.04c-.12.03-.25.06-.37.08-.04.45-.14.9-.09,1.34.02.21.33.39.5.59.13-.21.4-.44.37-.63-.07-.47-.26-.92-.41-1.37Z"/>
      <path class="cls-4" d="m116.76,101.04c.03-.33.01-.47.05-.59.15-.45.31-.89.47-1.33.42.33,1.01.58,1.21,1.02.24.52.21,1.21.15,1.81-.02.2-.47.51-.71.5-.33-.01-.77-.2-.96-.46-.21-.29-.19-.74-.23-.94Zm1.09-1.13l-.5.06c0,.5-.05,1.02.03,1.51.02.17.34.29.53.43.11-.17.34-.36.31-.51-.07-.5-.24-1-.37-1.49Z"/>
      <path class="cls-4" d="m122.87,105.91c1.57.32,2.37,1.82,1.7,2.9-.16.25-.65.39-1,.39-.23,0-.66-.3-.67-.5-.07-.91-.03-1.83-.03-2.8Zm.89.78c-.14.02-.29.05-.43.07,0,.53-.03,1.06.02,1.59.01.13.31.29.49.32.09.01.33-.26.31-.37-.1-.54-.26-1.07-.4-1.61Z"/>
      <path class="cls-3" d="m105.31,104.94c-.92-.48-1.97-1.01-3.01-1.57-.21-.11-.38-.32-.54-.5-.08-.09-.08-.25-.15-.36-.81-1.49-1.24-2.93.21-4.33.25-.24.28-.73.39-1.1.53-1.9,1.38-2.55,3.34-2.55.07,0,.13,0,.2,0,1.49,0,1.48,0,1.81,1.44.08.35.18.7.33,1.03.94,2.07.17,3.82-1.02,5.5-.59.83-1.1,1.72-1.57,2.45Z"/>
      <path class="cls-3" d="m101.51,91.89c1.68,6.39-1.31,9.08-6.43,9.27-.52-4.67.51-7.83,6.43-9.27Z"/>
      <path class="cls-3" d="m108.88,92.44c4.23-1.21,8.2-1.52,12.29-1.21.07.33.17.67.2,1.02.15,1.36-.19,1.76-1.52,2.04-3.43.74-6.72-.2-10.03-.83-.32-.06-.54-.58-.94-1.03Z"/>
      <path class="cls-3" d="m106.89,91.35c1.4-1.5,2.6-2.79,3.81-4.06.58-.61,1.26-.69,2.06-.46,1.56.44,3.3.39,4.59,1.63-.03.83-.44,1.16-1.31,1.08-.35-.03-.78.15-1.09.35-1.78,1.2-3.8,1.64-5.86,1.9-.6.08-1.24-.23-2.21-.43Z"/>
      <path class="cls-3" d="m116.38,97.72c-1.08,0-2.19-.02-3.3,0-1.22.02-2.43.12-3.65.1-.29,0-.7-.27-.84-.53-.27-.51-.44-1.09-.58-1.67-.31-1.26.36-1.89,1.68-1.63,1.48.29,2.96.55,4.32.99.6.41,1.17.9,1.81,1.22.67.33.84.74.55,1.51Z"/>
      <path class="cls-3" d="m102.42,88.88c-1.04,1.09-1.93,2.06-2.88,2.96-.26.24-.7.32-1.08.4-.77.15-1.56.25-2.34.37q-1.52.25-2.52-1.2c2.84-1.12,5.43-2.94,8.82-2.53Z"/>
      <path class="cls-3" d="m105.07,94.06c-.62,0-1.25-.02-1.87,0-.67.03-.92-.42-.64-.85.38-.57.99-1.33,1.54-1.37,1.31-.09,2.65.16,3.96.38.25.04.52.55.6.88.03.15-.36.53-.6.58-.98.21-1.98.32-2.97.48,0-.04-.01-.07-.02-.11Z"/>
      <path class="cls-3" d="m103.39,83.53c.98,2.56,1.97,5.11,2.99,7.77-.83-.04-1.53-.07-2.29-.11-.3-2.58-.59-5.09-.88-7.59.06-.02.12-.05.18-.07Z"/>
      <path class="cls-3" d="m103.29,89.16c.06,1.22.77,2.53-.94,3.15-.5-.24.07-1.53-1.28-.99.83-.81,1.47-1.44,2.21-2.17Z"/>
      <path class="cls-3" d="m103.13,113.81c.84.75,1.39,1.39,1.19,2.33-.06.3-.41.54-.63.81-.3-.27-.85-.53-.86-.82-.04-.71.17-1.44.3-2.32Z"/>
      <path class="cls-3" d="m103.91,106.08c.41.79,1.51,1.2,1.18,2.36-.09.32-.52.84-.64.81-.38-.13-.91-.43-.97-.74-.14-.76-.05-1.56-.05-2.35.16-.03.31-.05.47-.08Z"/>
      <path class="cls-3" d="m100.34,110.11c.22.56.5,1.1.64,1.67.07.29-.08.69-.25.95-.08.12-.61.14-.7.02-.18-.26-.31-.63-.28-.94.04-.55.22-1.08.34-1.62.09-.03.17-.05.26-.08Z"/>
      <path class="cls-3" d="m114.97,102.5c.44.53.88.89,1.06,1.34.15.4.01.91-.04,1.37,0,.05-.42.14-.49.06-.35-.4-.79-.8-.92-1.28-.1-.37.21-.86.39-1.49Z"/>
      <path class="cls-3" d="m106.06,112.98c.38-.5.73-.97,1.22-1.62.14.9.24,1.61.36,2.35-.91.47-1.15-.27-1.58-.73Z"/>
      <path class="cls-3" d="m114.56,115.76c-.9-.75-1.11-1.55-.74-2.53.78.64,1.13,1.4.74,2.53Z"/>
      <path class="cls-3" d="m110.66,107.62c.35.57.7,1.14,1.11,1.8-.41.19-.74.35-1.33.63v-2.38c.07-.02.15-.03.22-.05Z"/>
      <path class="cls-3" d="m119.65,106.25c.9.68,1.14,1.34.89,2.1-.08.24-.4.4-.61.6-.19-.22-.55-.43-.55-.65,0-.63.15-1.26.27-2.05Z"/>
      <path class="cls-3" d="m115.7,107.84c.55.39,1.36.6,1.15,1.56-.05.23-.17.61-.31.63-.24.04-.7-.07-.76-.23-.22-.6-.31-1.24-.45-1.86l.36-.09Z"/>
      <path class="cls-3" d="m117.19,115.89c.15.51.32,1.01.41,1.53.02.12-.25.41-.39.41-.15,0-.44-.22-.45-.36-.06-.49-.02-1-.02-1.5.15-.03.3-.05.45-.08Z"/>
      <path class="cls-3" d="m99.31,115.24c.15.51.34,1.01.44,1.53.02.13-.23.31-.36.47-.17-.15-.46-.28-.48-.44-.07-.47-.02-.95-.02-1.43.14-.04.28-.09.43-.13Z"/>
      <path class="cls-3" d="m123.06,102.05c.12.53.27,1.05.35,1.58.02.11-.2.35-.34.36-.14.02-.42-.15-.43-.25-.04-.54-.02-1.08-.02-1.62.14-.02.29-.05.43-.07Z"/>
      <path class="cls-3" d="m112.77,118.73c.14.51.32,1.02.41,1.54.02.14-.23.32-.36.49-.15-.13-.42-.24-.44-.39-.05-.5-.02-1.01-.02-1.52.14-.04.27-.07.41-.11Z"/>
      <path class="cls-3" d="m106.58,118.09c.12.49.28.97.35,1.47.02.14-.22.32-.34.48-.18-.15-.48-.28-.51-.45-.07-.46-.02-.94-.02-1.42.17-.03.34-.05.51-.08Z"/>
      <path class="cls-3" d="m108.48,119.81c.14.06.29.08.31.13.15.54.29,1.08.39,1.63,0,.03-.37.13-.56.19-.07-.49-.16-.97-.22-1.46-.02-.15.05-.3.08-.49Z"/>
      <path class="cls-3" d="m96.86,110.32c.16.5.35,1,.46,1.52.03.14-.21.33-.32.49-.17-.15-.48-.27-.5-.44-.07-.49-.02-.99-.02-1.49.13-.03.26-.05.39-.08Z"/>
      <path class="cls-3" d="m120.02,112.21c.15.43.37.85.42,1.29.03.23-.24.5-.37.75-.18-.23-.49-.45-.52-.71-.05-.41.08-.84.14-1.26.11-.03.22-.05.33-.08Z"/>
      <path class="cls-3" d="m110.73,115.86c.15.46.34.91.41,1.37.03.19-.24.42-.37.63-.18-.19-.48-.37-.5-.59-.05-.44.05-.89.09-1.34.12-.03.25-.06.37-.08Z"/>
      <path class="cls-3" d="m117.86,99.91c.13.5.29.99.37,1.49.02.15-.2.34-.31.51-.18-.14-.5-.27-.53-.43-.07-.49-.03-1-.03-1.51l.5-.06Z"/>
      <path class="cls-3" d="m123.77,106.69c.14.53.3,1.07.4,1.61.02.11-.23.39-.31.37-.18-.03-.48-.19-.49-.32-.06-.52-.02-1.06-.02-1.59.14-.02.29-.05.43-.07Z"/>
    </g>
  </g>
  <g>
    <path class="cls-4" d="m79.25,68.29c-.35.2-.59.39-.72.56-.13.17-.18.32-.15.47.45,2.64,1.03,5.24,1.74,7.77-.54.37-1.06.75-1.59,1.15-1.68-1.07-3.42-2.07-5.22-2.99.57,1.95,1.22,3.86,1.95,5.72-.49.45-.98.92-1.46,1.4-2.36-1.16-4.8-2.2-7.31-3.11-.13-.05-.31-.02-.52.09-.21.11-.43.28-.64.54-.17-.15-.35-.3-.52-.44,1.18-1.39,2.42-2.7,3.7-3.93.16.16.32.33.47.49-.28.27-.55.53-.82.81-.21.21-.26.36-.16.46,2.06.91,4.07,1.9,6.01,2.96-.81-1.91-1.54-3.87-2.2-5.87-.02-.04-.03-.07-.05-.09-.02-.03-.03-.05-.05-.08-.21-.25-.61-.12-1.2.4-.15-.17-.3-.34-.45-.51,1.25-1.11,2.54-2.16,3.87-3.13.13.18.27.37.4.55-.3.22-.6.45-.9.67-.12.09-.18.17-.19.23-.01.06,0,.12.05.19.07.09.18.17.34.25,1.85,1.05,3.64,2.16,5.36,3.35-.62-2.05-1.16-4.13-1.62-6.25,0-.02-.03-.07-.07-.14-.1-.16-.33-.14-.67.09-.21.14-.43.28-.64.43-.13-.19-.26-.38-.38-.57,1.07-.73,2.17-1.41,3.28-2.05.12.2.23.4.35.6Z"/>
    <path class="cls-4" d="m86.18,72.26c.13.32.55.31,1.27,0,.09.2.18.4.26.61-1.24.54-2.46,1.14-3.65,1.79-.11-.19-.21-.39-.32-.58.67-.37.93-.69.78-1-.54-1.04-1.08-2.09-1.61-3.13-.16-.32-.62-.29-1.36.12-.11-.19-.21-.39-.32-.58.97-.53,1.96-1.03,2.95-1.5.66,1.42,1.33,2.85,1.99,4.27Zm-2.65-6.11c.11.25.1.51-.04.79-.14.28-.37.5-.7.66-.16.08-.33.13-.49.15-.16.02-.32.02-.46,0-.14-.03-.28-.07-.39-.15-.12-.07-.21-.17-.28-.29-.13-.25-.12-.51.03-.8.15-.29.39-.52.72-.68.33-.16.65-.21.97-.15.32.06.53.22.64.47Z"/>
    <path class="cls-4" d="m90.99,70.34c.11.33.53.37,1.26.14.07.21.13.42.2.63-1.28.39-2.55.85-3.79,1.36-.08-.2-.17-.41-.25-.61.7-.29,1-.58.87-.9-.78-2.04-1.56-4.08-2.34-6.12-.12-.32-.6-.33-1.42,0-.08-.2-.17-.41-.25-.61,1.07-.44,2.16-.84,3.25-1.21.82,2.44,1.65,4.89,2.47,7.33Z"/>
    <path class="cls-4" d="m100.21,68.26c.04.35.44.47,1.21.39.02.22.04.44.06.66-.81.08-1.61.18-2.42.3-.08-.31-.17-.62-.25-.93-.15.42-.43.76-.84,1.02-.41.26-.9.45-1.49.58-.41.09-.81.12-1.21.09-.4-.02-.77-.12-1.11-.29-.35-.17-.66-.42-.93-.76-.27-.34-.49-.77-.65-1.32-.16-.56-.2-1.06-.1-1.5.09-.44.27-.83.55-1.17.27-.33.62-.61,1.04-.82.42-.21.88-.37,1.36-.47.46-.09.89-.13,1.3-.1.41.03.73.12.98.26-.12-.72-.23-1.43-.35-2.15-.05-.34-.52-.45-1.39-.29-.04-.22-.08-.43-.12-.65,1.13-.21,2.27-.39,3.41-.53.31,2.56.63,5.12.94,7.68Zm-4.3-3.55c-.37.07-.67.2-.91.37-.24.17-.41.38-.53.62-.11.24-.18.51-.19.81,0,.3.03.62.11.96.08.34.2.64.34.9.14.26.31.47.51.64.2.17.43.28.69.34.26.06.56.06.9-.01.33-.07.61-.18.82-.33.21-.16.37-.35.48-.58.11-.23.17-.49.2-.78.02-.29,0-.61-.05-.95-.05-.34-.14-.65-.25-.93-.12-.27-.27-.5-.46-.68-.19-.18-.42-.3-.7-.37-.27-.07-.6-.07-.97,0Z"/>
    <path class="cls-4" d="m116.03,62.13c-.89-.17-1.37-.06-1.43.29-.25,1.5-.5,2.99-.75,4.49-.17.98-.6,1.67-1.28,2.09-.68.42-1.56.56-2.66.46-.49-.04-.93-.13-1.3-.26-.37-.13-.69-.3-.94-.51-.25-.21-.44-.44-.57-.7-.13-.26-.19-.54-.19-.84,0-.32.12-.58.33-.77.21-.19.51-.27.87-.26.35.02.61.11.79.29.18.17.26.38.24.63-.02.22-.11.4-.28.54-.17.14-.39.21-.65.22.03.11.09.21.19.3.1.09.21.17.35.25.14.07.29.13.45.18.17.05.34.08.51.09.29.02.55,0,.78-.05.23-.06.44-.17.61-.33.17-.16.32-.38.43-.66.11-.28.2-.63.25-1.04.18-1.48.36-2.96.54-4.44.04-.35-.38-.59-1.27-.67.02-.23.04-.45.07-.68,1.69.16,3.37.4,5.03.72-.04.22-.09.45-.13.67Z"/>
    <path class="cls-4" d="m122.07,70.83c-.12.32-.05.52.19.62.11.04.22.03.32-.05.1-.08.17-.17.21-.3.08-.21.17-.43.25-.64.2.08.4.15.59.23-.07.16-.13.32-.2.48-.1.24-.21.42-.34.56-.13.14-.28.23-.44.29-.16.05-.33.07-.52.05-.18-.02-.37-.07-.57-.14-.22-.08-.4-.18-.53-.29-.13-.12-.24-.24-.31-.38-.07-.14-.12-.28-.13-.44-.01-.15-.01-.31,0-.46-.15.13-.33.24-.54.34-.21.09-.45.16-.7.21-.26.05-.54.06-.84.05-.3-.01-.61-.07-.94-.15-.78-.21-1.32-.48-1.62-.86-.3-.37-.41-.8-.3-1.3.06-.3.19-.54.36-.71.18-.17.41-.3.68-.38.28-.08.59-.12.93-.12.35,0,.71.02,1.1.06.39.04.79.09,1.2.14.41.06.83.11,1.25.15.04-.11.07-.23.11-.34.06-.18.09-.37.08-.55,0-.18-.06-.35-.15-.52-.09-.16-.23-.31-.41-.44-.18-.13-.41-.24-.69-.32-.47-.14-.88-.21-1.23-.22-.34,0-.62.03-.85.11.21.07.38.17.5.31.12.14.16.29.11.47-.06.21-.18.36-.38.45-.2.09-.45.09-.77.02-.32-.08-.54-.2-.67-.38-.13-.17-.17-.39-.11-.64.04-.19.16-.36.35-.51.19-.15.45-.27.77-.35.32-.08.7-.11,1.14-.1.44.02.94.1,1.47.26.43.13.84.29,1.22.48.38.19.7.42.95.67.25.25.42.54.5.87.08.32.05.68-.1,1.07-.33.9-.67,1.8-1,2.7Zm-.99-2.58c-.6-.07-1.13-.11-1.57-.13-.44-.02-.82,0-1.12.03-.31.04-.54.12-.71.24-.17.12-.28.29-.34.51-.07.27-.01.51.16.71.17.2.48.36.91.48.43.12.84.14,1.23.06.39-.08.7-.21.94-.39.17-.51.33-1.02.5-1.53Z"/>
    <path class="cls-4" d="m134.97,78.07c-.22.27-.02.65.58,1.15-.14.17-.28.34-.42.51-1-.84-2.02-1.63-3.07-2.37.13-.18.25-.36.38-.54.49.34.83.39,1.04.11.51-.69,1.01-1.38,1.52-2.07.29-.39.44-.71.44-.97,0-.25-.11-.47-.35-.64-.36-.26-.79-.39-1.27-.38-.48,0-.96.14-1.45.4-.43.67-.86,1.34-1.29,2.01-.19.29-.04.59.44.91-.12.18-.24.37-.37.55-.99-.66-1.99-1.28-3.02-1.85.11-.19.22-.38.32-.58.51.29.85.29,1.03,0,.43-.74.87-1.48,1.3-2.22.25-.42.36-.76.34-1.01-.02-.25-.16-.46-.43-.6-.38-.22-.82-.3-1.3-.25-.48.05-.94.24-1.38.56-.36.71-.72,1.42-1.08,2.13-.16.31.03.6.55.87-.1.19-.21.39-.31.58-1.11-.59-2.25-1.13-3.4-1.62.09-.2.17-.4.26-.61.68.29,1.09.29,1.24-.02.49-1.07.98-2.14,1.47-3.21.15-.31-.15-.65-.9-.97.09-.2.17-.4.26-.61,1,.43,1.99.89,2.97,1.38-.19.36-.37.72-.56,1.08.22-.08.45-.15.7-.2.25-.05.52-.07.8-.06.28.01.57.06.88.14.31.09.62.23.95.42.49.29.84.63,1.04,1.01.2.38.21.8.04,1.24.47-.14,1.01-.18,1.59-.1.59.08,1.17.33,1.73.74.54.4.88.83,1.02,1.28.14.45.02.92-.36,1.4-.64.81-1.29,1.62-1.93,2.43Z"/>
    <path class="cls-4" d="m143.08,82.28c-.22-.21-.43-.41-.65-.62.33-.44.42-.94.28-1.47-.14-.54-.47-1.08-1-1.6-.31-.31-.6-.5-.88-.59-.28-.09-.49-.06-.64.1-.17.18-.2.4-.09.67.11.27.28.57.5.9.22.33.47.69.74,1.07.27.38.49.76.66,1.14.17.38.25.75.24,1.1,0,.35-.17.66-.48.93-.22.19-.46.31-.72.35-.26.04-.52.03-.79-.06-.27-.08-.54-.22-.82-.41-.27-.19-.54-.43-.81-.71-.38-.4-.68-.75-.88-1.06-.2-.31-.34-.6-.43-.88-.03-.07-.05-.14-.08-.21-.03-.07-.07-.13-.12-.17-.01-.01-.08-.01-.2,0-.12,0-.25.06-.39.17-.2-.18-.39-.36-.59-.53.49-.56.98-1.11,1.47-1.67.22.17.44.33.67.5-.14.23-.22.48-.23.75-.01.27.03.55.11.83.09.28.22.56.4.84.17.28.38.54.61.79.31.32.6.52.87.59.27.07.48.03.65-.12.18-.16.22-.38.14-.65-.09-.27-.24-.57-.45-.9-.21-.33-.45-.68-.72-1.04-.27-.36-.5-.72-.69-1.08-.19-.36-.3-.72-.33-1.07-.03-.35.08-.68.36-1,.35-.4.81-.55,1.37-.45.56.11,1.19.48,1.84,1.12.34.34.62.69.83,1.05.21.36.36.67.45.93.03.09.06.17.09.24.03.07.07.13.12.19.02.02.09.04.21.04.12,0,.25-.02.4-.09.2.22.39.44.59.67-.53.46-1.07.93-1.6,1.39Z"/>
  </g>
  <g>
    <path class="cls-4" d="m85.3,137.32c-.25-.15-.5-.3-.75-.46.51-.92.38-1.64-.36-2.2-.73-.54-1.44-1.12-2.13-1.72-.55.64-1.1,1.27-1.64,1.91.38.32.76.64,1.14.95.41.33.9.17,1.47-.45.21.16.42.32.63.48-.69.83-1.39,1.67-2.09,2.5-.22-.16-.44-.33-.66-.5.46-.74.5-1.25.14-1.54-.37-.3-.73-.6-1.09-.91-.63.73-1.26,1.46-1.89,2.2.67.58,1.36,1.14,2.06,1.67,1.25.96,2.4.82,3.36-.32.25.2.5.4.75.59-.63.77-1.26,1.54-1.9,2.31-2.61-1.72-5.08-3.73-7.38-6.03.14-.14.28-.28.42-.42.61.61,1.03.78,1.25.55,1.28-1.35,2.55-2.7,3.83-4.05.22-.23.06-.6-.46-1.12.15-.15.29-.29.44-.44,1.92,1.92,3.98,3.6,6.16,5.04-.43.65-.86,1.31-1.29,1.96Z"/>
    <path class="cls-4" d="m93,141.71c-.27-.07-.53-.14-.8-.22.09-.35.11-.68.06-.99-.05-.31-.16-.59-.32-.85-.16-.26-.38-.5-.64-.71-.26-.22-.57-.41-.91-.58-.52-.26-.98-.4-1.38-.43-.4-.02-.7.13-.89.47-.12.21-.13.41-.03.62.09.21.25.42.47.64.22.22.49.44.82.66.32.22.65.45.98.68.33.23.66.47.98.71.32.25.58.51.8.78.21.28.36.58.44.9.08.32.04.68-.1,1.07-.15.39-.36.7-.64.92-.28.22-.62.36-1.02.42-.4.06-.84.04-1.33-.07-.49-.11-1.01-.29-1.55-.55-.55-.26-1.01-.55-1.36-.85-.35-.3-.64-.61-.87-.93-.1-.15-.22-.27-.35-.34-.06-.03-.17-.04-.34-.02-.17.02-.33.07-.46.16-.27-.16-.54-.32-.81-.48.5-.81.99-1.63,1.49-2.44.26.13.52.26.78.39-.14.31-.2.62-.17.95.03.33.13.65.31.97.18.32.44.63.78.93.34.3.75.56,1.22.79.7.34,1.29.47,1.75.42.46-.05.79-.31.98-.77.06-.15.06-.3-.01-.45-.07-.15-.18-.3-.35-.45-.16-.15-.35-.3-.58-.46-.22-.15-.46-.31-.72-.48-.26-.17-.51-.34-.77-.51-.25-.18-.49-.36-.71-.55-.3-.26-.56-.51-.77-.77-.21-.26-.36-.52-.45-.78-.09-.26-.11-.53-.08-.81.04-.28.15-.57.33-.87.14-.23.32-.43.55-.59.22-.17.49-.27.8-.32.31-.05.66-.04,1.05.04.39.08.83.25,1.33.5.46.23.83.46,1.12.69.28.23.52.46.72.7.12.14.23.24.35.29.08.03.19.03.34,0,.15-.04.27-.1.38-.17.19.08.38.15.58.23-.33.84-.66,1.68-.98,2.53Z"/>
    <path class="cls-4" d="m102.97,144.71c-.26-.02-.52-.05-.77-.07.03-.46.03-.86,0-1.17-.04-.32-.11-.58-.22-.78-.11-.2-.25-.36-.43-.46-.18-.1-.4-.18-.66-.23-.34-.06-.69-.13-1.03-.21-.41,1.91-.82,3.81-1.22,5.72-.07.31.29.56,1.09.71-.04.19-.07.39-.11.58-1.48-.28-2.96-.62-4.41-1.04.05-.19.11-.38.16-.57.77.22,1.2.16,1.28-.15.49-1.89.98-3.77,1.48-5.66-.34-.09-.68-.18-1.02-.28-.25-.07-.49-.1-.69-.09-.21.01-.41.09-.59.22-.19.13-.37.33-.55.6-.18.27-.36.62-.54,1.05-.24-.09-.49-.19-.73-.28.36-1,.71-2,1.07-2.99,2.7.96,5.49,1.62,8.31,1.97-.13,1.05-.26,2.1-.39,3.15Z"/>
    <path class="cls-4" d="m104.54,148.7c-.02.23-.14.41-.36.56-.22.14-.48.2-.78.17-.3-.03-.54-.14-.73-.32-.19-.18-.26-.39-.24-.62.03-.22.15-.4.37-.54.22-.14.47-.19.76-.16.29.03.52.13.71.31.19.18.27.38.26.6Z"/>
    <path class="cls-4" d="m117.99,146.72c.04.08.07.18.1.28.03.1.05.19.06.26.04.18.05.36.04.54-.02.17-.08.34-.18.49-.1.15-.25.28-.45.4-.19.11-.45.2-.75.26-.43.08-.79.1-1.07.07-.29-.03-.56-.07-.81-.12-.25-.06-.52-.1-.8-.14-.28-.04-.62-.03-1.03,0-.34.04-.61.11-.82.24-.21.12-.39.28-.55.48-.22.02-.43.03-.65.04.11-.58.3-1.07.57-1.46.27-.39.57-.72.9-1,.33-.28.67-.53,1.02-.74.35-.21.66-.43.94-.66.27-.22.48-.48.63-.75.15-.27.19-.61.12-1-.06-.37-.24-.66-.54-.87-.29-.21-.7-.28-1.23-.21-.23.03-.42.07-.58.12-.16.05-.3.12-.41.19-.11.07-.2.15-.27.23-.07.08-.13.17-.18.25.17,0,.32.04.47.15.15.11.23.25.25.43.02.21-.03.4-.17.56-.14.16-.36.25-.64.28-.28.02-.5-.03-.66-.17-.16-.14-.25-.33-.26-.56-.01-.19.03-.4.12-.63.09-.23.24-.45.45-.65.21-.21.48-.39.81-.55.33-.16.74-.27,1.22-.33.39-.05.77-.07,1.15-.06.38.01.72.08,1.04.19.31.11.59.29.82.53.23.24.4.56.48.96.1.44.06.83-.12,1.17-.17.33-.43.64-.76.9-.33.26-.71.5-1.13.7-.42.2-.83.4-1.21.58-.39.19-.73.38-1.02.58-.29.2-.47.44-.54.71.28-.23.56-.4.84-.5.28-.1.57-.17.88-.21.29-.04.54-.04.77-.02.23.02.44.05.63.08.2.03.39.06.58.08.19.02.39.02.6-.02.11-.02.21-.05.3-.08.1-.04.18-.09.25-.17.07-.07.13-.17.17-.28.04-.11.06-.25.06-.42.19-.04.38-.08.56-.12Z"/>
    <path class="cls-4" d="m121.43,140.27c.55-.19,1.05-.31,1.5-.36.45-.04.87,0,1.26.16.38.15.74.41,1.07.78.33.37.64.87.93,1.51.28.62.44,1.17.47,1.66.04.49-.05.92-.25,1.31-.2.38-.52.73-.96,1.02-.44.29-.98.56-1.63.79-.65.23-1.24.36-1.77.4-.52.04-.98-.03-1.38-.21-.39-.18-.73-.47-.99-.87-.27-.4-.48-.94-.65-1.6-.17-.67-.24-1.26-.22-1.76.03-.5.14-.92.34-1.28.2-.35.49-.65.87-.9.38-.25.85-.46,1.4-.65Zm.24.68c-.33.11-.58.27-.76.47-.18.2-.29.45-.34.74-.05.29-.05.62,0,.98.06.36.15.77.28,1.21.16.52.31.95.47,1.28.16.33.34.58.55.75.21.17.45.26.72.27.27,0,.6-.05.99-.18.38-.13.68-.29.89-.47.21-.18.34-.4.41-.66.06-.26.05-.57-.03-.93-.08-.36-.22-.79-.42-1.29-.17-.43-.35-.8-.53-1.12-.18-.32-.39-.58-.61-.77-.22-.19-.46-.32-.73-.37-.26-.05-.56-.02-.9.1Z"/>
    <path class="cls-4" d="m128.93,136.74c.51-.31.98-.54,1.43-.68.44-.14.87-.19,1.28-.12.41.06.82.24,1.23.53.41.29.82.72,1.23,1.28.4.55.67,1.06.8,1.53.13.47.14.92.01,1.34-.13.42-.38.83-.75,1.22-.38.39-.87.77-1.47,1.13-.6.36-1.16.62-1.68.77-.51.15-.98.18-1.41.09-.43-.09-.82-.3-1.16-.64-.35-.34-.67-.82-.97-1.43-.31-.62-.49-1.19-.57-1.68-.07-.49-.05-.94.08-1.33.13-.39.36-.75.69-1.07.33-.32.75-.64,1.26-.94Zm.37.62c-.3.18-.52.39-.66.63-.13.24-.2.5-.19.8,0,.29.07.62.2.96.13.35.3.72.52,1.12.26.48.5.86.73,1.15.22.29.46.5.7.62.24.12.5.16.77.11.27-.05.59-.18.95-.39.36-.22.62-.44.79-.66.17-.22.26-.47.27-.74,0-.27-.06-.57-.22-.91-.15-.33-.38-.73-.68-1.18-.25-.38-.51-.71-.76-.98-.25-.27-.5-.48-.76-.62-.26-.14-.53-.21-.8-.2-.27,0-.56.11-.87.29Z"/>
    <path class="cls-4" d="m135.7,131.69c.11.15.21.28.29.39.08.11.16.2.24.29,1.17,1.25,2.34,2.5,3.51,3.75.2.22.68-.01,1.41-.74l.42.42c-1.3,1.3-2.66,2.51-4.06,3.62-.12-.16-.25-.31-.37-.47.92-.73,1.26-1.24,1.07-1.46-.93-1.09-1.87-2.18-2.8-3.27-.43.37-.87.73-1.31,1.08-.13-.14-.26-.27-.39-.41.91-.74,1.25-1.6,1.04-2.49.32-.23.64-.47.95-.71Z"/>
  </g>
</svg>